<?xml version="1.0"?>
<svg xmlns="http://www.w3.org/2000/svg" xmlns:xlink="http://www.w3.org/1999/xlink" xmlns:svgjs="http://svgjs.com/svgjs" version="1.1" width="512" height="512" x="0" y="0" viewBox="0 0 480 480" style="enable-background:new 0 0 512 512" xml:space="preserve" class=""><g><path xmlns="http://www.w3.org/2000/svg" d="m440 8h-400c-17.671875 0-32 14.328125-32 32v272h464v-272c0-17.671875-14.328125-32-32-32zm0 272h-400v-240h400zm0 0" fill="#dbf1e4" data-original="#9bc9ff" style="" class=""/><path xmlns="http://www.w3.org/2000/svg" d="m8 360c0 8.835938 7.164062 16 16 16h432c8.835938 0 16-7.164062 16-16v-48h-464zm0 0" fill="#dbf1e4" data-original="#9bc9ff" style="" class=""/><path xmlns="http://www.w3.org/2000/svg" d="m200 376h80v64h-80zm0 0" fill="#dbf1e4" data-original="#9bc9ff" style="" class=""/><path xmlns="http://www.w3.org/2000/svg" d="m160 440c-8.835938 0-16 7.164062-16 16s7.164062 16 16 16h160c8.835938 0 16-7.164062 16-16s-7.164062-16-16-16zm0 0" fill="#dbf1e4" data-original="#9bc9ff" style="" class=""/><g xmlns="http://www.w3.org/2000/svg" fill="#1e81ce"><path d="m440 0h-400c-22.082031.0273438-39.9726562 17.917969-40 40v320c0 13.253906 10.746094 24 24 24h168v48h-32c-13.253906 0-24 10.746094-24 24s10.746094 24 24 24h160c13.253906 0 24-10.746094 24-24s-10.746094-24-24-24h-32v-48h168c13.253906 0 24-10.746094 24-24v-320c-.027344-22.082031-17.917969-39.9726562-40-40zm-424 40c0-13.253906 10.746094-24 24-24h400c13.253906 0 24 10.746094 24 24v264h-448zm312 416c0 4.417969-3.582031 8-8 8h-160c-4.417969 0-8-3.582031-8-8s3.582031-8 8-8h160c4.417969 0 8 3.582031 8 8zm-56-24h-64v-48h64zm192-72c0 4.417969-3.582031 8-8 8h-432c-4.417969 0-8-3.582031-8-8v-40h448zm0 0" fill="#24d265" data-original="#1e81ce" style="" class=""/><path d="m440 32h-400c-4.417969 0-8 3.582031-8 8v240c0 4.417969 3.582031 8 8 8h400c4.417969 0 8-3.582031 8-8v-240c0-4.417969-3.582031-8-8-8zm-8 240h-384v-224h384zm0 0" fill="#24d265" data-original="#1e81ce" style="" class=""/><path d="m104 200h40v24c0 4.417969 3.582031 8 8 8s8-3.582031 8-8v-24h16c4.417969 0 8-3.582031 8-8s-3.582031-8-8-8h-16v-88c0-4.417969-3.582031-8-8-8s-8 3.582031-8 8v88h-40c-4.175781.015625-7.65625-3.183594-8-7.34375l15.839844-79.054688c.671875-2.847656-.261719-5.832031-2.4375-7.789062-2.171875-1.953125-5.238282-2.566406-8-1.597656-2.757813.96875-4.769532 3.363281-5.242188 6.25l-16 80c-.101562.503906-.15625 1.019531-.160156 1.535156 0 13.253906 10.746094 24 24 24zm0 0" fill="#24d265" data-original="#1e81ce" style="" class=""/><path d="m216 232h48c13.253906 0 24-10.746094 24-24v-96c0-13.253906-10.746094-24-24-24h-48c-13.253906 0-24 10.746094-24 24v96c0 13.253906 10.746094 24 24 24zm-8-120c0-4.417969 3.582031-8 8-8h48c4.417969 0 8 3.582031 8 8v96c0 4.417969-3.582031 8-8 8h-48c-4.417969 0-8-3.582031-8-8zm0 0" fill="#24d265" data-original="#1e81ce" style="" class=""/><path d="m328 200h40v24c0 4.417969 3.582031 8 8 8s8-3.582031 8-8v-24h16c4.417969 0 8-3.582031 8-8s-3.582031-8-8-8h-16v-88c0-4.417969-3.582031-8-8-8s-8 3.582031-8 8v88h-40c-4.175781.015625-7.65625-3.183594-8-7.34375l15.839844-79.054688c.699218-4.253906-2.097656-8.296874-6.324219-9.144531-4.226563-.84375-8.363281 1.8125-9.355469 6.007813l-16 80c-.101562.503906-.15625 1.019531-.160156 1.535156 0 13.253906 10.746094 24 24 24zm0 0" fill="#24d265" data-original="#1e81ce" style="" class=""/></g></g></svg>
