<?xml version="1.0"?>
<svg xmlns="http://www.w3.org/2000/svg" id="Icons" viewBox="0 0 74 74" width="512" height="512"><path d="M6.4,71a1,1,0,0,1-.957-1.292l4.982-16.346A31.834,31.834,0,0,1,4.8,35.2,32.2,32.2,0,1,1,37,67.4a31.9,31.9,0,0,1-10.829-1.871l-19.5,5.434A.974.974,0,0,1,6.4,71ZM37,5A30.235,30.235,0,0,0,6.8,35.2a29.841,29.841,0,0,0,5.539,17.407,1,1,0,0,1,.143.872L7.889,68.547l18.055-5.03a.981.981,0,0,1,.617.025A29.869,29.869,0,0,0,37,65.4,30.2,30.2,0,0,0,37,5Z"/><path d="M37,45.693a1,1,0,0,1-1-1v-.528a14.041,14.041,0,0,1,5.788-11.179A8.121,8.121,0,0,0,37.227,18.4a7.741,7.741,0,0,0-5.769,2.255A8.077,8.077,0,0,0,29,26.5a1,1,0,1,1-2,0,10.064,10.064,0,0,1,3.063-7.274,9.9,9.9,0,0,1,7.219-2.82A10.121,10.121,0,0,1,43,34.58a12.061,12.061,0,0,0-5,9.585v.528A1,1,0,0,1,37,45.693Z"/><path d="M37,54a1,1,0,0,1-1-1V50.627a1,1,0,0,1,2,0V53A1,1,0,0,1,37,54Z"/></svg>
